<svg xmlns="http://www.w3.org/2000/svg" version="1.1" xmlns:xlink="http://www.w3.org/1999/xlink" xmlns:svgjs="http://svgjs.dev/svgjs" width="1000" height="1000" viewBox="0 0 1000 1000"><rect width="1000" height="1000" fill="#000000"></rect><g transform="matrix(0.7,0,0,0.7,149.90044910179654,149.90044910179637)"><svg viewBox="0 0 334 334" data-background-color="#fafafa" preserveAspectRatio="xMidYMid meet" height="1000" width="1000" xmlns="http://www.w3.org/2000/svg" xmlns:xlink="http://www.w3.org/1999/xlink"><g id="tight-bounds" transform="matrix(1,0,0,1,0.04749999999998522,0.04750000000001364)"><svg viewBox="0 0 333.90454557049503 333.90454557049503" height="333.90454557049503" width="333.90454557049503"><g><svg></svg></g><g><svg viewBox="0 0 333.90454557049503 333.90454557049503" height="333.90454557049503" width="333.90454557049503"><g><path d="M0 166.952c0-92.205 74.747-166.952 166.952-166.952 92.205 0 166.952 74.747 166.953 166.952 0 92.205-74.747 166.952-166.953 166.953-92.205 0-166.952-74.747-166.952-166.953zM166.952 329.037c89.517 0 162.084-72.568 162.085-162.085 0-89.517-72.568-162.084-162.085-162.084-89.517 0-162.084 72.568-162.084 162.084 0 89.517 72.568 162.084 162.084 162.085z" data-fill-palette-color="tertiary" fill="#ffffff" stroke="transparent"></path><ellipse rx="160.27418187383762" ry="160.27418187383762" cx="166.95227278524752" cy="166.95227278524752" fill="#ffffff" stroke="transparent" stroke-width="0" fill-opacity="1" data-fill-palette-color="tertiary"></ellipse></g><g transform="matrix(1,0,0,1,111.43869928556484,71.17305217166896)"><svg viewBox="0 0 111.02714699936536 191.55844122715712" height="191.55844122715712" width="111.02714699936536"><g><svg viewBox="0 0 111.02714699936536 191.55844122715712" height="191.55844122715712" width="111.02714699936536"><g><svg viewBox="0 0 213.1584412271571 367.7686028995972" height="191.55844122715712" width="111.02714699936536"><g transform="matrix(1,0,0,1,0,200.1082281029966)"><svg viewBox="0 0 213.1584412271571 167.6603747966006" height="167.6603747966006" width="213.1584412271571"><g id="textblocktransform"><svg viewBox="0 0 213.1584412271571 167.6603747966006" height="167.6603747966006" width="213.1584412271571" id="textblock"><g><svg viewBox="0 0 213.1584412271571 167.6603747966006" height="167.6603747966006" width="213.1584412271571"><g transform="matrix(1,0,0,1,0,0)"><svg width="213.1584412271571" viewBox="1.2999999523162842 -36.54999923706055 46.85000228881836 36.849998474121094" height="167.6603747966006" data-palette-color="#fafafa"><path d="M11.1 0.3L11.1 0.3Q8.05 0.3 5.85-0.8 3.65-1.9 2.48-3.78 1.3-5.65 1.3-7.95L1.3-7.95Q1.3-8.5 1.55-8.72 1.8-8.95 2.15-8.95L2.15-8.95Q2.5-8.95 2.8-8.72 3.1-8.5 3.1-8.05L3.1-8.05Q3.1-5.85 4.17-4.38 5.25-2.9 7.08-2.2 8.9-1.5 11.1-1.5L11.1-1.5Q14.85-1.5 16.95-3.58 19.05-5.65 19.05-10L19.05-10 19.05-34.75 11.1-34.75Q10.7-34.75 10.48-35.05 10.25-35.35 10.25-35.7L10.25-35.7Q10.25-36 10.45-36.27 10.65-36.55 11.1-36.55L11.1-36.55 19.95-36.55Q20.3-36.55 20.58-36.33 20.85-36.1 20.85-35.65L20.85-35.65 20.85-10Q20.85-6.25 19.55-4 18.25-1.75 16.05-0.73 13.85 0.3 11.1 0.3ZM38.4 0.3L38.4 0.3Q35.75 0.3 33.5-0.73 31.25-1.75 29.92-4 28.6-6.25 28.6-10L28.6-10 28.6-26.25Q28.6-30 29.97-32.25 31.35-34.5 33.6-35.52 35.85-36.55 38.55-36.55L38.55-36.55Q41.75-36.55 43.87-35.4 46-34.25 47.07-32.45 48.15-30.65 48.15-28.7L48.15-28.7Q48.15-27.85 47.92-27.58 47.7-27.3 47.25-27.3L47.25-27.3Q46.6-27.3 46.47-27.63 46.35-27.95 46.35-28.2L46.35-28.2Q46.3-29.1 45.97-30.23 45.65-31.35 44.82-32.38 44-33.4 42.47-34.08 40.95-34.75 38.5-34.75L38.5-34.75Q34.55-34.75 32.47-32.68 30.4-30.6 30.4-26.25L30.4-26.25 30.4-10Q30.4-5.6 32.5-3.55 34.6-1.5 38.7-1.5L38.7-1.5Q41.2-1.5 42.65-2.15 44.1-2.8 44.85-3.8 45.6-4.8 45.9-5.95 46.2-7.1 46.35-8.05L46.35-8.05Q46.4-8.4 46.55-8.68 46.7-8.95 47.25-8.95L47.25-8.95Q47.7-8.95 47.92-8.65 48.15-8.35 48.15-7.5L48.15-7.5Q48.15-5.6 47.05-3.8 45.95-2 43.77-0.85 41.6 0.3 38.4 0.3Z" opacity="1" transform="matrix(1,0,0,1,0,0)" fill="#000000" class="wordmark-text-0" data-fill-palette-color="quaternary" id="text-0"></path></svg></g></svg></g></svg></g></svg></g><g transform="matrix(1,0,0,1,40.713262274387006,0)"><svg viewBox="0 0 131.7319166783831 175.64255557117747" height="175.64255557117747" width="131.7319166783831"><g><svg xmlns="http://www.w3.org/2000/svg" xmlns:xlink="http://www.w3.org/1999/xlink" version="1.1" x="0" y="0" viewBox="12 6 72 96" enable-background="new -2 4 100 100" xml:space="preserve" height="175.64255557117747" width="131.7319166783831" class="icon-icon-0" data-fill-palette-color="quaternary" id="icon-0"><g fill="#fafafa" data-fill-palette-color="quaternary"><path d="M72 30H60V18c0-6.617-5.383-12-12-12H16c-2.209 0-4 1.791-4 4v88c0 2.209 1.791 4 4 4h64c2.209 0 4-1.791 4-4V42C84 35.383 78.617 30 72 30zM76 94H20V14h28c2.206 0 4 1.794 4 4v16c0 2.209 1.791 4 4 4h16c2.206 0 4 1.794 4 4V94z" fill="#000000" data-fill-palette-color="quaternary"></path><path d="M77.172 28.829C77.952 29.609 78.977 30 80 30s2.048-0.391 2.828-1.171c1.562-1.562 1.562-4.095 0-5.657l-16-16c-1.561-1.562-4.096-1.562-5.656 0-1.562 1.562-1.562 4.095 0 5.657L77.172 28.829z" fill="#000000" data-fill-palette-color="quaternary"></path><path d="M38.829 55.172c-1.562-1.562-4.095-1.562-5.657 0l-8 8c-1.562 1.562-1.562 4.095 0 5.656l8 8C33.953 77.609 34.976 78 36 78s2.047-0.391 2.829-1.172c1.562-1.562 1.562-4.095 0-5.656L33.657 66l5.172-5.172C40.391 59.267 40.391 56.733 38.829 55.172z" fill="#000000" data-fill-palette-color="quaternary"></path><path d="M62.828 55.172c-1.561-1.562-4.096-1.562-5.656 0-1.562 1.562-1.562 4.095 0 5.656L62.343 66l-5.171 5.172c-1.562 1.562-1.562 4.095 0 5.656C57.952 77.609 58.977 78 60 78s2.048-0.391 2.828-1.172l8-8c1.562-1.562 1.562-4.095 0-5.656L62.828 55.172z" fill="#000000" data-fill-palette-color="quaternary"></path><path d="M50.496 46.031c-2.195-0.272-4.191 1.281-4.465 3.473l-4 32c-0.274 2.192 1.281 4.191 3.473 4.465C45.672 85.99 45.839 86 46.004 86c1.988 0 3.711-1.48 3.964-3.504l4-32C54.242 48.304 52.688 46.305 50.496 46.031z" fill="#000000" data-fill-palette-color="quaternary"></path></g></svg></g></svg></g><g></g></svg></g></svg></g></svg></g></svg></g><defs></defs></svg><rect width="333.90454557049503" height="333.90454557049503" fill="none" stroke="none" visibility="hidden"></rect></g></svg></g></svg>